<svg width="30" height="30" viewBox="0 0 30 30" fill="none" xmlns="http://www.w3.org/2000/svg">
<g clip-path="url(#clip0)">
<circle opacity="0.4" cx="15" cy="15" r="15" fill="white"/>
<path d="M4.35161 25.7206L4.74992 25.4205V24.9218V24.375C4.74992 23.8071 5.02645 23.2357 5.65795 22.6529C6.29625 22.0638 7.22823 21.5329 8.33878 21.0881C10.5615 20.1976 13.2476 19.75 14.9999 19.75C16.7523 19.75 19.4383 20.1976 21.6611 21.0881C22.7716 21.5329 23.7036 22.0638 24.3419 22.6529C24.9734 23.2357 25.2499 23.8071 25.2499 24.375V24.9218V25.1919L25.3859 25.4253C26.0049 26.4878 26.0441 27.8706 25.5387 29.4893C25.0347 31.1032 24.0223 32.8292 22.7429 34.4279C21.4671 36.0221 19.9637 37.4423 18.5283 38.4551C17.0506 39.4978 15.7986 40 14.9999 40C14.6511 40 14.1363 39.8717 13.4644 39.5526C12.8067 39.2403 12.0656 38.7775 11.2844 38.1912C9.72189 37.0184 8.07041 35.4049 6.69577 33.6796C5.31149 31.9422 4.26542 30.1633 3.83485 28.667C3.40203 27.163 3.65054 26.2487 4.35161 25.7206ZM10.3749 11.875C10.3749 9.31947 12.4444 7.25 14.9999 7.25C17.5554 7.25 19.6249 9.31947 19.6249 11.875C19.6249 14.4305 17.5554 16.5 14.9999 16.5C12.4444 16.5 10.3749 14.4305 10.3749 11.875Z" stroke="white" stroke-width="2"/>
</g>
<defs>
<clipPath id="clip0">
<path d="M0 15C0 6.71573 6.71573 0 15 0C23.2843 0 30 6.71573 30 15C30 23.2843 23.2843 30 15 30C6.71573 30 0 23.2843 0 15Z" fill="white"/>
</clipPath>
</defs>
</svg>
