<svg width="30" height="30" viewBox="0 0 30 30" fill="none" xmlns="http://www.w3.org/2000/svg">
<g clip-path="url(#clip0)">
<circle cx="15" cy="15" r="15" fill="#D4669B"/>
<path d="M4.35173 25.7206L4.75004 25.4205V24.9218V24.375C4.75004 23.8071 5.02657 23.2357 5.65808 22.6529C6.29638 22.0638 7.22835 21.5329 8.3389 21.0881C10.5616 20.1976 13.2477 19.75 15 19.75C16.7524 19.75 19.4385 20.1976 21.6612 21.0881C22.7717 21.5329 23.7037 22.0638 24.342 22.6529C24.9735 23.2357 25.25 23.8071 25.25 24.375V24.9218V25.1919L25.386 25.4253C26.0051 26.4878 26.0443 27.8706 25.5388 29.4893C25.0348 31.1032 24.0224 32.8292 22.7431 34.4279C21.4673 36.0221 19.9638 37.4423 18.5284 38.4551C17.0507 39.4978 15.7988 40 15 40C14.6512 40 14.1364 39.8717 13.4645 39.5526C12.8068 39.2403 12.0657 38.7775 11.2845 38.1912C9.72201 37.0184 8.07053 35.4049 6.69589 33.6796C5.31161 31.9422 4.26554 30.1633 3.83497 28.667C3.40215 27.163 3.65066 26.2487 4.35173 25.7206ZM10.375 11.875C10.375 9.31947 12.4445 7.25 15 7.25C17.5556 7.25 19.625 9.31947 19.625 11.875C19.625 14.4305 17.5556 16.5 15 16.5C12.4445 16.5 10.375 14.4305 10.375 11.875Z" stroke="white" stroke-width="2"/>
</g>
<defs>
<clipPath id="clip0">
<path d="M0 15C0 6.71573 6.71573 0 15 0V0C23.2843 0 30 6.71573 30 15V15C30 23.2843 23.2843 30 15 30V30C6.71573 30 0 23.2843 0 15V15Z" fill="white"/>
</clipPath>
</defs>
</svg>
