<svg width="24" height="24" viewBox="0 0 24 24" fill="none" xmlns="http://www.w3.org/2000/svg">
<path d="M18.25 0.75H5.75C2.98875 0.75 0.75 2.98875 0.75 5.75V18.25C0.75 21.0113 2.98875 23.25 5.75 23.25H12.7763V14.5487H9.8475V11.1425H12.7763V8.63625C12.7763 5.73125 14.5525 4.1475 17.145 4.1475C18.0187 4.145 18.8913 4.19 19.76 4.27875V7.31625H17.975C16.5625 7.31625 16.2875 7.98375 16.2875 8.96875V11.1375H19.6625L19.2237 14.5437H16.2675V23.25H18.25C21.0113 23.25 23.25 21.0113 23.25 18.25V5.75C23.25 2.98875 21.0113 0.75 18.25 0.75Z" fill="white"/>
</svg>
