<svg width="80" height="30" viewBox="0 0 80 30" fill="none" xmlns="http://www.w3.org/2000/svg">
<path fill-rule="evenodd" clip-rule="evenodd" d="M4 3.60001C4 1.94315 5.34315 0.600006 7 0.600006H21.4C23.0569 0.600006 24.4 1.94315 24.4 3.60001V5.40001C24.4 6.06275 23.8627 6.60001 23.2 6.60001C22.5373 6.60001 22 6.06275 22 5.40001V3.60001C22 3.26864 21.7314 3.00001 21.4 3.00001H7C6.66863 3.00001 6.4 3.26864 6.4 3.60001V26.639C6.4 27.1181 6.93378 27.4039 7.33253 27.1384L12.5373 23.6729C13.5444 23.0024 14.8556 23.0024 15.8627 23.6729L21.0675 27.1384C21.4662 27.4039 22 27.1181 22 26.639V24.0075C22 23.3448 22.5373 22.8075 23.2 22.8075C23.8627 22.8075 24.4 23.3448 24.4 24.0075V26.639C24.4 29.0343 21.7311 30.4636 19.7373 29.1361L14.5325 25.6706C14.3311 25.5365 14.0689 25.5365 13.8675 25.6706L8.66266 29.1361C6.66889 30.4636 4 29.0343 4 26.639V3.60001Z" fill="white"/>
<path d="M20.5001 20.4H13.0805L12.9185 19.0554C13.0589 18.8718 13.3559 18.6936 13.8095 18.5208V11.1174C13.3667 10.9554 13.0697 10.7718 12.9185 10.5666L13.0805 9.22201H16.8713L17.0333 10.5666C16.8605 10.7718 16.5635 10.9554 16.1423 11.1174V18.6342H18.7019C18.8423 18.0726 19.0421 17.673 19.3013 17.4354L20.5001 17.5812V20.4Z" fill="white"/>
<path d="M21.1473 12.3C21.7521 12.1596 22.3137 12.0894 22.8321 12.0894C23.3505 12.0894 23.7879 12.1056 24.1443 12.138V18.6018C24.5655 18.7638 24.8625 18.9474 25.0353 19.1526L24.8733 20.4H21.1473L20.9853 19.1526C21.1365 18.9474 21.4335 18.7638 21.8763 18.6018V14.0982C21.4983 13.9686 21.2013 13.785 20.9853 13.5474L21.1473 12.3ZM22.9779 11.1822C22.0815 11.1822 21.6333 10.7772 21.6333 9.96721C21.6333 9.14641 22.0815 8.73601 22.9779 8.73601C23.8851 8.73601 24.3387 9.14641 24.3387 9.96721C24.3387 10.7772 23.8851 11.1822 22.9779 11.1822Z" fill="white"/>
<path d="M25.343 8.89801C25.9478 8.75761 26.5094 8.68741 27.0278 8.68741C27.5462 8.68741 27.9836 8.70361 28.34 8.73601V12.786C28.5668 12.624 28.8692 12.4836 29.2472 12.3648C29.6252 12.2352 29.987 12.1704 30.3326 12.1704C31.5098 12.1704 32.336 12.4728 32.8112 13.0776C33.2864 13.6824 33.524 14.7138 33.524 16.1718C33.524 16.9818 33.4106 17.6838 33.1838 18.2778C32.9678 18.861 32.6708 19.3092 32.2928 19.6224C31.58 20.2272 30.7376 20.5296 29.7656 20.5296C29.0312 20.5296 28.3076 20.346 27.5948 19.9788C27.3896 20.2596 27.152 20.4 26.882 20.4H26.072V10.6962C25.694 10.5666 25.397 10.383 25.181 10.1454L25.343 8.89801ZM29.636 18.8772C30.6728 18.8772 31.1912 18.0078 31.1912 16.269C31.1912 15.351 31.0994 14.73 30.9158 14.406C30.743 14.0712 30.4352 13.9038 29.9924 13.9038C29.3228 13.9038 28.772 14.082 28.34 14.4384V18.6018C28.8044 18.7854 29.2364 18.8772 29.636 18.8772Z" fill="white"/>
<path d="M42.073 16.512H41.344V18.4236C42.1324 18.5964 42.6238 18.807 42.8182 19.0554L42.6562 20.4H38.2822L38.1202 19.0554C38.2606 18.8718 38.5576 18.6936 39.0112 18.5208V11.1174C38.5684 10.9554 38.2714 10.7718 38.1202 10.5666L38.2822 9.22201H42.5752C44.0764 9.24361 45.1942 9.51901 45.9286 10.0482C46.6738 10.5666 47.0464 11.4954 47.0464 12.8346C47.0464 15.2862 45.3886 16.512 42.073 16.512ZM42.316 10.9878H41.344V14.7462H42.4294C43.1638 14.7462 43.7092 14.6004 44.0656 14.3088C44.4328 14.0172 44.6164 13.515 44.6164 12.8022C44.6164 12.0786 44.4166 11.598 44.017 11.3604C43.6282 11.112 43.0612 10.9878 42.316 10.9878Z" fill="white"/>
<path d="M51.4314 20.5296C50.157 20.5296 49.212 20.1894 48.5964 19.509C47.9808 18.8286 47.673 17.8026 47.673 16.431C47.673 15.0486 48.0132 13.9956 48.6936 13.272C49.3848 12.5376 50.373 12.1704 51.6582 12.1704C52.9434 12.1704 53.8938 12.4944 54.5094 13.1424C55.1358 13.7904 55.449 14.8056 55.449 16.188C55.449 17.5596 55.098 18.6288 54.396 19.3956C53.7048 20.1516 52.7166 20.5296 51.4314 20.5296ZM50.0058 16.2852C50.0058 18.0132 50.5242 18.8772 51.561 18.8772C52.0902 18.8772 52.479 18.6828 52.7274 18.294C52.9866 17.8944 53.1162 17.2464 53.1162 16.35C53.1162 14.6652 52.587 13.8228 51.5286 13.8228C51.0102 13.8228 50.6268 14.0118 50.3784 14.3898C50.13 14.757 50.0058 15.3888 50.0058 16.2852Z" fill="white"/>
<path d="M56.4741 12.3C57.0789 12.1596 57.6405 12.0894 58.1589 12.0894C58.6773 12.0894 59.1147 12.1056 59.4711 12.138V18.6018C59.8923 18.7638 60.1893 18.9474 60.3621 19.1526L60.2001 20.4H56.4741L56.3121 19.1526C56.4633 18.9474 56.7603 18.7638 57.2031 18.6018V14.0982C56.8251 13.9686 56.5281 13.785 56.3121 13.5474L56.4741 12.3ZM58.3047 11.1822C57.4083 11.1822 56.9601 10.7772 56.9601 9.96721C56.9601 9.14641 57.4083 8.73601 58.3047 8.73601C59.2119 8.73601 59.6655 9.14641 59.6655 9.96721C59.6655 10.7772 59.2119 11.1822 58.3047 11.1822Z" fill="white"/>
<path d="M61.1719 12.3C61.7659 12.1704 62.3005 12.1056 62.7757 12.1056C63.2509 12.1056 63.6451 12.1164 63.9583 12.138V12.948C64.2283 12.7212 64.5847 12.5376 65.0275 12.3972C65.4811 12.246 65.9131 12.1704 66.3235 12.1704C67.3819 12.1704 68.1217 12.4188 68.5429 12.9156C68.9749 13.4124 69.1909 14.271 69.1909 15.4914V18.6018C69.6121 18.7638 69.9091 18.9474 70.0819 19.1526L69.9199 20.4H66.1939L66.0319 19.1526C66.1831 18.9474 66.4801 18.7638 66.9229 18.6018V15.3942C66.9229 14.811 66.8257 14.4222 66.6313 14.2278C66.4477 14.0226 66.1129 13.92 65.6269 13.92C65.1409 13.92 64.6549 14.0928 64.1689 14.4384V18.6018C64.5901 18.7638 64.8871 18.9474 65.0599 19.1526L64.8979 20.4H61.1719L61.0099 19.1526C61.1611 18.9474 61.4581 18.7638 61.9009 18.6018V14.0982C61.5229 13.9686 61.2259 13.785 61.0099 13.5474L61.1719 12.3Z" fill="white"/>
<path d="M73.5929 10.2588V12.3H75.9095V13.6608H73.5929V17.7594C73.5929 18.105 73.6415 18.3588 73.7387 18.5208C73.8359 18.672 74.0681 18.7476 74.4353 18.7476C74.8025 18.7476 75.1967 18.6666 75.6179 18.5046L76.1039 19.7682C75.2723 20.1894 74.4191 20.4 73.5443 20.4C72.6803 20.4 72.0917 20.2164 71.7785 19.8492C71.4761 19.4712 71.3249 18.9258 71.3249 18.213V13.6608H70.5959L70.4177 12.6726C70.5905 12.4674 70.9469 12.2622 71.4869 12.057C71.6165 11.1714 71.9243 10.572 72.4103 10.2588H73.5929Z" fill="white"/>
</svg>
