<svg width="24" height="24" viewBox="0 0 24 24" fill="none" xmlns="http://www.w3.org/2000/svg">
<path d="M20.75 0.75H3.25C1.86875 0.75 0.75 1.86875 0.75 3.25V20.75C0.75 22.1313 1.86875 23.25 3.25 23.25H20.75C22.1313 23.25 23.25 22.1313 23.25 20.75V3.25C23.25 1.86875 22.1313 0.75 20.75 0.75ZM19.3837 16.605L17.215 16.635C17.215 16.635 16.7475 16.7262 16.135 16.3037C15.3237 15.7462 14.5587 14.2962 13.9625 14.485C13.3575 14.6775 13.3762 15.9825 13.3762 15.9825C13.3762 15.9825 13.3813 16.2125 13.2425 16.3625C13.0925 16.5237 12.7987 16.5075 12.7987 16.5075H11.8275C11.8275 16.5075 9.685 16.685 7.79625 14.7163C5.73875 12.57 3.92125 8.33375 3.92125 8.33375C3.92125 8.33375 3.815 8.06625 3.92875 7.93C4.0575 7.77875 4.405 7.775 4.405 7.775L6.72625 7.76375C6.72625 7.76375 6.945 7.8025 7.1025 7.9175C7.23125 8.0125 7.305 8.19125 7.305 8.19125C7.305 8.19125 7.68 9.1425 8.1775 10.0037C9.1475 11.6825 9.59875 12.05 9.9275 11.87C10.4075 11.6075 10.2638 9.4975 10.2638 9.4975C10.2638 9.4975 10.2725 8.73125 10.0225 8.39C9.8275 8.12375 9.46125 8.045 9.3 8.025C9.16875 8.0075 9.3825 7.70375 9.66125 7.56625C10.0787 7.3625 10.8175 7.35 11.6888 7.35875C12.3675 7.36625 12.5638 7.4075 12.8288 7.4725C13.63 7.66625 13.3575 8.41375 13.3575 10.2075C13.3575 10.7825 13.2537 11.59 13.6675 11.8563C13.8462 11.9713 14.2813 11.8737 15.3675 10.0237C15.8838 9.14625 16.27 8.115 16.27 8.115C16.27 8.115 16.355 7.93125 16.4862 7.8525C16.6212 7.77125 16.8025 7.79625 16.8025 7.79625L19.2463 7.78125C19.2463 7.78125 19.98 7.6925 20.1 8.02625C20.225 8.375 19.8262 9.18875 18.8275 10.52C17.1887 12.7075 17.0062 12.5037 18.3675 13.7687C19.6675 14.9775 19.9363 15.565 19.9813 15.6388C20.5188 16.5338 19.3837 16.605 19.3837 16.605Z" fill="white"/>
</svg>
